{"title":"Mastizaade 2016 WEBrip Hindi Movies xviD-TvMovize.mp4","uid":13942462,"size":907104821,"categoryP":"video","categoryS":"movies","magnet":"?xt=urn:btih:a650d7cbd4758c923e7cf8963bcb9ea69570a56f&amp;dn=Mastizaade+2016+WEBrip+Hindi+Movies+xviD-TvMovize.mp4&amp;tr=udp%3A%2F%2Ftracker.leechers-paradise.org%3A6969&amp;tr=udp%3A%2F%2Fzer0day.ch%3A1337&amp;tr=udp%3A%2F%2Fopen.demonii.com%3A1337&amp;tr=udp%3A%2F%2Ftracker.coppersurfer.tk%3A6969&amp;tr=udp%3A%2F%2Fexodus.desync.com%3A6969","seeders":0,"leechers":1,"uploader":"TvMovize","files":1,"time":1458476276,"description":"Mastizaade 2016 WEBrip Hindi Movies xviD-TvMovize.mp4\r\n\r\n++ ScreenShots ++\r\n \nhttp://www.image2be.com/movie/Mastizaade/1.html  \nhttp://www.image2be.com/movie/Mastizaade/2.html  \nhttp://www.image2be.com/movie/Mastizaade/3.html  \nhttp://www.image2be.com/movie/Mastizaade/4.html  \nhttp://www.image2be.com/movie/Mastizaade/5.html \r\n\r\n++ Info ++\r\n\r\nFormat : MPEG-4 \r\nFormat profile : Base Media \r\nCodec ID : isom (isom/iso2/avc1/mp41) \r\nFile size : 865 MiB \r\nDuration : 1h 46mn \r\nOverall bit rate : 1 135 Kbps \r\nMovie name : Mastizaade (2016) 720p HDRip x264 Hindi AC3 2.0 - MRDhila \r\nWriting application : Lavf57.20.100 \r\n\r\nVideo \r\nID : 1 \r\nFormat : AVC \r\nFormat/Info : Advanced Video Codec \r\nFormat profile :    \r\nFormat settings, CABAC : Yes \r\nFormat settings, ReFrames : 4 frames \r\nCodec ID : avc1 \r\nCodec ID/Info : Advanced Video Coding \r\nDuration : 1h 46mn \r\nBit rate : 999 Kbps \r\nWidth : 1 280 pixels \r\nHeight : 544 pixels \r\nDisplay aspect ratio : 2.35:1 \r\nFrame rate mode : Variable \r\nFrame rate : 24.000 fps \r\nMinimum frame rate : 23.634 fps \r\nMaximum frame rate : 24.390 fps \r\nColor space : YUV \r\nChroma subsampling : 4:2:0 \r\nBit depth : 8 bits \r\nScan type : Progressive \r\nBits/(Pixel*Frame) : 0.060 \r\nStream size : 761 MiB (88%) \r\nWriting library : x264 core 148 r2638 7599210 \r\nEncoding settings : cabac=1 / ref=3 / deblock=1:0:0 / analyse=0x3:0x113 / me=hex / subme=7 / psy=1 / psy_rd=1.00:0.00 / mixed_ref=1 / me_range=16 / chroma_me=1 / trellis=1 / 8x8dct=1 / cqm=0 / deadzone=21,11 / fast_pskip=1 / chroma_qp_offset=-2 / threads=17 / lookahead_threads=2 / sliced_threads=0 / nr=0 / decimate=1 / interlaced=0 / bluray_compat=0 / constrained_intra=0 / bframes=3 / b_pyramid=2 / b_adapt=1 / b_bias=0 / direct=1 / weightb=1 / open_gop=0 / weightp=2 / keyint=240 / keyint_min=24 / scenecut=40 / intra_refresh=0 / rc_lookahead=40 / rc=2pass / mbtree=1 / bitrate=999 / ratetol=1.0 / qcomp=0.60 / qpmin=0 / qpmax=69 / qpstep=4 / cplxblur=20.0 / qblur=0.5 / vbv_maxrate=62500 / vbv_bufsize=78125 / nal_hrd=none / filler=0 / ip_ratio=1.40 / aq=1:1.00 \r\n\r\nAudio \r\nID : 2 \r\nFormat : AAC \r\nFormat/Info : Advanced Audio Codec \r\nFormat profile : LC \r\nCodec ID : 40 \r\nDuration : 1h 46mn \r\nDuration_LastFrame : -11ms \r\nBit rate mode : Constant \r\nBit rate : 130 Kbps \r\nChannel(s) : 2 channels \r\nChannel positions : Front: L R \r\nSampling rate : 48.0 KHz \r\nFrame rate : 46.875 fps (1024 spf) \r\nCompression mode : Lossy \r\nStream size : 98.8 MiB (11%) \r\nLanguage : Hindi \r\nDefault : Yes \r\nAlternate group : 1","torrent":{"xt":"urn:btih:a650d7cbd4758c923e7cf8963bcb9ea69570a56f","amp;dn":"Mastizaade+2016+WEBrip+Hindi+Movies+xviD-TvMovize.mp4","amp;tr":["udp%3A%2F%2Ftracker.leechers-paradise.org%3A6969","udp%3A%2F%2Fzer0day.ch%3A1337","udp%3A%2F%2Fopen.demonii.com%3A1337","udp%3A%2F%2Ftracker.coppersurfer.tk%3A6969","udp%3A%2F%2Fexodus.desync.com%3A6969"],"infoHash":"a650d7cbd4758c923e7cf8963bcb9ea69570a56f","infoHashBuffer":{"type":"Buffer","data":[166,80,215,203,212,117,140,146,62,124,248,150,59,203,158,166,149,112,165,111]},"announce":[],"urlList":[]}}